<svg width="454" height="454" viewBox="0 0 454 454" fill="none" xmlns="http://www.w3.org/2000/svg">
    <g clip-path="url(#clip0_6_2)">
        <g clip-path="url(#clip1_6_2)">
            <path opacity="0.980392" d="M231 21L248.5 22C254.167 23.6667 258.667 26.5 262 30.5L263 38.5L226 152.5L227.5 152L270.5 141L274 138.5L279 117L287.5 116L298.5 118C303.033 119.533 306.533 122.033 309 125.5L311 133.5L305 152.5L307.5 151L340.5 125L357.5 117L366.5 115H379.5L388.5 117L396.5 121L405 129.5L410 141.5L411 160.5L408 174.5L403 188.5C396 202.5 387.167 214.667 376.5 225C364.7 236.867 350.7 246.533 334.5 254L308.5 262L288.5 263L276.5 260L271 257L264 281.5L248 348.5L240 391.5L238 420.5C239.8 421.633 240.133 424.3 239 428.5L232.5 431L220.5 428L211 420.5L207 413.5L205 403.5V396.5L206 395.5L207 378.5L218 329.5L268 157L220 172L212 199.5L195 270.5V275.5L191 291.5L189 311.5L188 312.5L187 341.5L188 347L181.5 348H179.5C168.167 347.333 160.333 343.167 156 335.5C151.667 327.833 150.333 317.167 152 303.5L153 302.5L154 286.5L159 261.5L173 204.5L178 189L140.5 204L107 220L102 239.5L95 275.5V282.5L93 291.5V313C78.8667 314.667 69.2 311.5 64 303.5C60.2 298.633 58.8667 291.3 60 281.5L61 280.5L62 266.5L68 240L46.5 249H33.5C26.0333 247.467 20.2 244.3 16 239.5L15 236.5L35.5 223L78 203L79 195.5L109 95.5L113 77.5V69.5L110.5 68C92.9667 78.4667 77.8 91.3 65 106.5L45 133.5L38 149.5L37 158.5L39 165.5L37.5 167H29.5L18 162L14 155.5L13 146.5C14.5333 138.367 17.2 131.367 21 125.5C28.4 114.233 36.9 104.067 46.5 95L49.5 93C63.5667 78.4 79.5667 65.7333 97.5 55L118.5 45C122.967 43.4667 128.633 43.1333 135.5 44C141.1 45.4667 145.267 48.3 148 52.5C150.4 56.1 151.067 61.4333 150 68.5L144 96.5L119 186.5L121.5 187C141.967 178 163.467 170.333 186 164L231 21ZM364 136L352 141L329 159C305 181 287.333 209.333 276 244L294 241L307 236C318.333 230.667 328.667 224 338 216C348.667 206.667 358 195.667 366 183L375 162L376 151L377 150L376 143L374 139C372 136.333 368.667 135.333 364 136Z" fill="url(#paint0_linear_6_2)" stroke="url(#paint1_linear_6_2)"/>
        </g>
    </g>
    <defs>
        <linearGradient id="paint0_linear_6_2" x1="411" y1="226" x2="13" y2="226" gradientUnits="userSpaceOnUse">
            <stop stop-color="#FFCC00"/>
            <stop offset="1" stop-color="#FF6200"/>
        </linearGradient>
        <linearGradient id="paint1_linear_6_2" x1="411" y1="226" x2="13" y2="226" gradientUnits="userSpaceOnUse">
            <stop stop-color="#FFCC00"/>
            <stop offset="1" stop-color="#FF6200"/>
        </linearGradient>
        <clipPath id="clip0_6_2">
            <rect width="454" height="454" fill="white"/>
        </clipPath>
        <clipPath id="clip1_6_2">
            <rect width="1024" height="1024" fill="white" transform="translate(-285 -263)"/>
        </clipPath>
    </defs>
</svg>
